<svg width="40" height="40" viewBox="0 0 40 40" fill="none" xmlns="http://www.w3.org/2000/svg">
  <circle cx="20" cy="20" r="11" stroke="#FF5A1F" stroke-width="2"/>
  <path d="M9 20H31" stroke="#FF5A1F" stroke-width="2"/>
  <path d="M20 9C22.9 12.2 24.5 16 24.5 20C24.5 24 22.9 27.8 20 31" stroke="#FF5A1F" stroke-width="2"/>
  <path d="M20 9C17.1 12.2 15.5 16 15.5 20C15.5 24 17.1 27.8 20 31" stroke="#FF5A1F" stroke-width="2"/>
  <path d="M7 10.5L5.5 8.2L8.2 8.6L9.8 6.3L10.2 9L12.8 9.8L10.3 11L10.2 13.7L8.5 11.6L6 12.5L7 10.5Z" fill="#FF5A1F"/>
  <path d="M31 32.5L29.5 30.2L32.2 30.6L33.8 28.3L34.2 31L36.8 31.8L34.3 33L34.2 35.7L32.5 33.6L30 34.5L31 32.5Z" fill="#FF5A1F"/>
</svg>
