<svg xmlns="http://www.w3.org/2000/svg" width="40" height="40" fill="none" viewBox="0 0 40 40"><path fill="#fb4d17" d="M31.417 26.15a1.666 1.666 0 0 0-2.35 0l-3.434 3.433a1.666 1.666 0 0 0 .75 2.784l.434.116-1.334 1.334a1.666 1.666 0 0 0 0 2.366 1.667 1.667 0 0 0 2.367 0l3.333-3.333a1.67 1.67 0 0 0 .434-1.667A1.67 1.67 0 0 0 30.433 30L30 29.9l1.383-1.4a1.666 1.666 0 0 0 .034-2.35m-18.234 6.333.434-.116a1.667 1.667 0 0 0 .75-2.784l-3.434-3.433a1.667 1.667 0 0 0-2.35 2.35l1.384 1.4-.434.1a1.67 1.67 0 0 0-1.183 1.183 1.67 1.67 0 0 0 .433 1.667l3.334 3.333a1.667 1.667 0 0 0 2.366 0 1.667 1.667 0 0 0 0-2.366zM35 6.667a1.667 1.667 0 0 0-1.667 1.666h-5a5 5 0 0 0-5-5h-6.666a5 5 0 0 0-5 5h-5a1.667 1.667 0 0 0-3.334 0v3.334a1.667 1.667 0 0 0 3.334 0h5V15A5 5 0 0 0 15 19.717v1.95A3.333 3.333 0 0 0 18.333 25v10a1.666 1.666 0 1 0 3.334 0V25A3.334 3.334 0 0 0 25 21.667v-1.95A5 5 0 0 0 28.333 15v-3.333h5a1.667 1.667 0 0 0 3.334 0V8.333A1.666 1.666 0 0 0 35 6.667M25 15a1.666 1.666 0 0 1-1.667 1.667 1.667 1.667 0 0 0-1.666 1.666v3.334h-3.334v-3.334a1.667 1.667 0 0 0-1.666-1.666A1.667 1.667 0 0 1 15 15V8.333a1.667 1.667 0 0 1 1.667-1.666h6.666A1.667 1.667 0 0 1 25 8.333zm-5-5a1.666 1.666 0 0 0-1.667 1.667v1.666a1.667 1.667 0 0 0 3.334 0v-1.666A1.666 1.666 0 0 0 20 10"/></svg>