<svg xmlns="http://www.w3.org/2000/svg" width="40" height="40" fill="none" viewBox="0 0 40 40"><path fill="#fb4d17" d="M27.5 36.25a1.25 1.25 0 0 1-1.25 1.25h-12.5a1.25 1.25 0 1 1 0-2.5h12.5a1.25 1.25 0 0 1 1.25 1.25m6.25-20a13.68 13.68 0 0 1-5.256 10.814 2.54 2.54 0 0 0-.994 1.999V30a2.5 2.5 0 0 1-2.5 2.5H15a2.5 2.5 0 0 1-2.5-2.5v-.937a2.5 2.5 0 0 0-.973-1.979A13.69 13.69 0 0 1 6.25 16.328C6.21 8.88 12.228 2.68 19.669 2.5A13.75 13.75 0 0 1 33.75 16.25m-2.5 0A11.25 11.25 0 0 0 19.728 5c-6.094.144-11.01 5.217-10.978 11.311a11.2 11.2 0 0 0 4.319 8.797A5 5 0 0 1 15 29.063V30h3.75v-6.983l-4.634-4.632a1.25 1.25 0 0 1 1.768-1.77L20 20.734l4.116-4.117a1.25 1.25 0 1 1 1.768 1.768l-4.634 4.633V30H25v-.937a5.02 5.02 0 0 1 1.948-3.961 11.2 11.2 0 0 0 4.302-8.852"/></svg>