<svg xmlns="http://www.w3.org/2000/svg" width="40" height="40" fill="none" viewBox="0 0 40 40"><path fill="#fb4d17" d="m39.734 16.861-3.987-7.978a2.5 2.5 0 0 0-3.355-1.117l-3.886 1.942-8.186-2.166a1.3 1.3 0 0 0-.64 0l-8.186 2.166-3.886-1.942a2.5 2.5 0 0 0-3.355 1.117L.266 16.859a2.5 2.5 0 0 0 1.117 3.355L5.6 22.325l8.67 6.192q.195.137.424.195l10 2.5a1.25 1.25 0 0 0 1.188-.328l8.604-8.606 4.129-2.064a2.5 2.5 0 0 0 1.117-3.353zm-8.576 5.214-5.377-4.306a1.25 1.25 0 0 0-1.669.095c-2.782 2.803-5.884 2.448-7.862 1.198l6.756-6.562h4.97l4.252 8.502zM6.489 10l3.198 1.597-3.995 7.977L2.5 17.978zm18.125 18.614-9.08-2.269-7.687-5.49 4.375-8.75L20 10.044l1.531.404-7.031 6.825-.013.015a2.5 2.5 0 0 0 .425 3.876c3.213 2.052 7.09 1.719 10.143-.781l4.32 3.47zm9.687-9.042-3.987-7.969L33.511 10l3.989 7.978zm-13.71 14.48a1.25 1.25 0 0 1-1.516.909l-6.511-1.628a1.2 1.2 0 0 1-.423-.195l-4.118-2.941a1.25 1.25 0 0 1 1.453-2.031l3.924 2.803 6.287 1.569a1.25 1.25 0 0 1 .91 1.515z"/></svg>