<svg xmlns="http://www.w3.org/2000/svg" width="40" height="40" fill="none" viewBox="0 0 40 40"><path fill="#fb4d17" d="M33.333 16.117v-.284a13.25 13.25 0 0 0-9.316-12.7h-.1a13.9 13.9 0 0 0-4.317-.6A13.683 13.683 0 0 0 6.667 16.117a5 5 0 0 0 0 9.433A13.333 13.333 0 0 0 20 37.5h.383a13.55 13.55 0 0 0 12.8-11.933 5 5 0 0 0 .15-9.45M20.3 34.167a10 10 0 0 1-10.15-8.334h19.617a10.15 10.15 0 0 1-9.467 8.334M31.667 22.5H8.333a1.667 1.667 0 0 1 0-3.333h3.334a1.667 1.667 0 0 0 0-3.334H10a10.67 10.67 0 0 1 5-8.583v5.25a1.666 1.666 0 1 0 3.333 0V5.983a12 12 0 0 1 1.367-.15h.3q.84.012 1.667.15V12.5a1.666 1.666 0 1 0 3.333 0V7.2c.707.41 1.367.896 1.967 1.45A10 10 0 0 1 30 15.833h-1.667a1.666 1.666 0 1 0 0 3.334h3.334a1.667 1.667 0 0 1 0 3.333"/></svg>