<svg xmlns="http://www.w3.org/2000/svg" width="165" height="32" fill="none" viewBox="0 0 165 32"><path fill="#fb4d17" d="M32 17.067H0V30.4h32zM32 1.6H0v13.333h32zM46.296 28V4.727h8.909q2.522 0 4.193.796 1.68.783 2.511 2.147.84 1.365.841 3.091 0 1.42-.545 2.432a4.6 4.6 0 0 1-1.466 1.625q-.921.625-2.057.898v.227q1.238.07 2.375.761 1.148.683 1.875 1.932.727 1.25.727 3.023 0 1.807-.875 3.25-.875 1.432-2.636 2.262T55.716 28zm4.215-3.523h4.534q2.296 0 3.307-.875 1.023-.885 1.023-2.273 0-1.033-.511-1.863-.512-.84-1.455-1.318-.943-.489-2.25-.489h-4.648zm0-9.852h4.17q1.092 0 1.967-.398a3.3 3.3 0 0 0 1.375-1.148q.51-.75.511-1.772 0-1.353-.954-2.227-.944-.876-2.807-.875H50.51zM65.865 28V10.546h3.989v2.909h.181q.478-1.511 1.637-2.33 1.17-.83 2.67-.83.34 0 .761.034.432.023.716.08v3.784q-.26-.09-.83-.159a8 8 0 0 0-1.079-.08q-1.125 0-2.022.49a3.6 3.6 0 0 0-1.398 1.329q-.511.852-.511 1.966V28zm11.407 0V10.546h4.114V28zm2.069-19.932a2.4 2.4 0 0 1-1.682-.648q-.705-.658-.705-1.58 0-.93.705-1.579.704-.659 1.682-.659.989 0 1.681.66.705.647.705 1.579 0 .92-.705 1.58-.693.647-1.681.647M91.95 28.341q-2.614 0-4.489-1.148-1.863-1.148-2.875-3.17-1-2.034-1-4.682 0-2.66 1.023-4.693 1.023-2.045 2.886-3.182 1.875-1.148 4.432-1.148 2.125 0 3.761.784 1.649.772 2.625 2.194.978 1.408 1.114 3.295h-3.932q-.239-1.262-1.136-2.102-.887-.853-2.375-.853-1.262 0-2.216.682-.954.67-1.489 1.932-.522 1.261-.522 3.023 0 1.785.522 3.068.523 1.273 1.466 1.966.955.681 2.239.682.91 0 1.625-.341.727-.352 1.216-1.012.488-.659.67-1.602h3.932q-.148 1.853-1.09 3.284-.945 1.421-2.569 2.227-1.625.796-3.818.796m13.325-5.818-.011-4.966h.659l6.272-7.011h4.807l-7.716 8.59h-.852zM101.525 28V4.727h4.114V28zm10.954 0-5.681-7.943 2.772-2.898L117.4 28zm10.098-10.227V28h-4.113V10.546h3.931v2.965h.205a5 5 0 0 1 1.92-2.33q1.33-.863 3.285-.863 1.806 0 3.147.773 1.353.772 2.091 2.239.75 1.465.739 3.556V28h-4.114V17.523q0-1.75-.909-2.739-.897-.989-2.489-.989-1.078 0-1.92.478-.83.465-1.307 1.352-.465.886-.466 2.148m21.834 10.568q-2.625 0-4.534-1.091-1.898-1.102-2.921-3.114-1.022-2.022-1.022-4.761 0-2.693 1.022-4.727 1.035-2.045 2.887-3.182 1.852-1.148 4.352-1.148 1.614 0 3.045.523a6.9 6.9 0 0 1 2.546 1.59q1.113 1.08 1.75 2.75.636 1.66.636 3.955v1.262h-14.307v-2.773h10.364q-.011-1.182-.511-2.102a3.73 3.73 0 0 0-1.398-1.466q-.886-.534-2.068-.534-1.262 0-2.216.613a4.23 4.23 0 0 0-1.489 1.591 4.6 4.6 0 0 0-.534 2.148v2.42q0 1.524.557 2.614a3.97 3.97 0 0 0 1.557 1.66q1 .567 2.341.567.897 0 1.625-.25a3.6 3.6 0 0 0 1.261-.761q.534-.5.807-1.239l3.841.432a6 6 0 0 1-1.387 2.66q-1.01 1.125-2.59 1.75-1.58.613-3.614.613m18.677-17.795v3.181h-10.034v-3.181zm-7.557-4.182h4.114V22.75q0 .83.25 1.273.261.432.682.59.42.16.932.16.386 0 .704-.057.33-.057.5-.102l.693 3.215q-.329.115-.943.25a7.7 7.7 0 0 1-1.477.16q-1.545.045-2.784-.466a4.33 4.33 0 0 1-1.966-1.614q-.715-1.09-.705-2.727z"/></svg>