<svg xmlns="http://www.w3.org/2000/svg" width="208" height="40" fill="none" viewBox="0 0 208 40"><path fill="#fb4d17" d="M40 21.333H0V38h40zM40 2H0v16.667h40z"/><path fill="#fff" d="M54.87 35V5.91h11.136q3.154 0 5.241.993 2.102.981 3.14 2.685 1.05 1.704 1.05 3.864 0 1.775-.681 3.04a5.74 5.74 0 0 1-1.833 2.03 7.8 7.8 0 0 1-2.57 1.123v.284q1.548.085 2.968.952 1.435.852 2.344 2.415.909 1.561.909 3.778 0 2.258-1.094 4.062-1.095 1.79-3.295 2.827Q69.983 35 66.645 35zm5.27-4.403h5.667q2.869 0 4.133-1.094 1.28-1.108 1.279-2.841 0-1.293-.64-2.33-.639-1.05-1.818-1.647-1.179-.61-2.812-.611h-5.81zm0-12.316h5.212q1.364 0 2.458-.497 1.094-.51 1.718-1.435.64-.937.64-2.216 0-1.689-1.194-2.784-1.179-1.093-3.508-1.093h-5.327zM79.33 35V13.182h4.986v3.636h.227q.597-1.89 2.046-2.912 1.463-1.037 3.338-1.037.426 0 .951.043.54.028.895.1v4.73q-.326-.114-1.037-.2a9.5 9.5 0 0 0-1.35-.099q-1.406 0-2.528.611a4.47 4.47 0 0 0-1.747 1.662q-.639 1.066-.639 2.457V35zm14.26 0V13.182h5.142V35zm2.585-24.915a3 3 0 0 1-2.103-.81q-.88-.824-.88-1.974 0-1.165.88-1.974a2.97 2.97 0 0 1 2.103-.824q1.236 0 2.102.824.88.81.88 1.974 0 1.15-.88 1.975-.867.81-2.102.81m15.761 25.341q-3.267 0-5.611-1.434-2.33-1.435-3.593-3.964-1.25-2.542-1.25-5.852 0-3.324 1.278-5.866 1.278-2.557 3.608-3.978 2.344-1.434 5.54-1.434 2.656 0 4.702.98 2.059.966 3.281 2.741 1.221 1.762 1.392 4.12h-4.915q-.298-1.577-1.42-2.628-1.109-1.065-2.969-1.065-1.577 0-2.77.852-1.194.837-1.861 2.415-.653 1.575-.653 3.778 0 2.23.653 3.835.654 1.59 1.833 2.458 1.193.852 2.798.852 1.135 0 2.031-.426a4.1 4.1 0 0 0 1.52-1.264q.611-.825.838-2.003h4.915q-.185 2.315-1.364 4.105-1.179 1.775-3.21 2.784-2.031.994-4.773.994m16.657-7.273-.015-6.207h.824l7.841-8.764h6.009l-9.645 10.739h-1.066zM123.906 35V5.91h5.142V35zm13.693 0-7.102-9.929 3.466-3.622L143.75 35zm12.623-12.784V35h-5.142V13.182h4.914v3.707h.256a6.23 6.23 0 0 1 2.401-2.912q1.662-1.08 4.105-1.08 2.258 0 3.934.967 1.69.966 2.614 2.798.938 1.833.923 4.446V35h-5.142V21.903q0-2.187-1.136-3.423-1.122-1.236-3.111-1.236-1.35 0-2.4.597-1.037.583-1.634 1.69-.582 1.108-.582 2.685m27.292 13.21q-3.282 0-5.668-1.364-2.371-1.377-3.651-3.891-1.278-2.529-1.278-5.952 0-3.367 1.278-5.91 1.293-2.556 3.608-3.977 2.316-1.434 5.441-1.434 2.016 0 3.807.653a8.6 8.6 0 0 1 3.181 1.989q1.393 1.35 2.188 3.437.795 2.074.795 4.944v1.576h-17.883v-3.466h12.954q-.013-1.477-.639-2.628a4.65 4.65 0 0 0-1.747-1.832q-1.108-.668-2.585-.668-1.577 0-2.77.768a5.3 5.3 0 0 0-1.861 1.988 5.7 5.7 0 0 0-.668 2.685v3.025q0 1.904.697 3.267.695 1.35 1.946 2.074 1.25.71 2.926.71 1.122 0 2.031-.312a4.5 4.5 0 0 0 1.577-.952 3.96 3.96 0 0 0 1.008-1.548l4.801.54a7.5 7.5 0 0 1-1.733 3.324q-1.264 1.405-3.238 2.187-1.975.767-4.517.767m23.346-22.244v3.977h-12.542v-3.977zm-9.446-5.227h5.142v20.482q0 1.038.313 1.591.327.54.852.739.526.2 1.165.199.483 0 .881-.071.412-.07.625-.128l.866 4.02a12 12 0 0 1-1.179.312q-.753.17-1.846.2-1.932.056-3.481-.583a5.4 5.4 0 0 1-2.457-2.017q-.895-1.364-.881-3.41z"/></svg>